<svg xmlns="http://www.w3.org/2000/svg" xmlns:xlink="http://www.w3.org/1999/xlink" width="331" zoomAndPan="magnify" viewBox="0 0 248.25 245.249991" height="327" preserveAspectRatio="xMidYMid meet" version="1.0"><defs><clipPath id="a247067806"><path d="M 0.00390625 0 L 247.496094 0 L 247.496094 244.503906 L 0.00390625 244.503906 Z M 0.00390625 0 " clip-rule="nonzero"/></clipPath><clipPath id="f81c665e52"><path d="M 105.414062 1.65625 C 109.566406 -0.0585938 114.230469 -0.390625 118.625 0.421875 C 123.050781 1.234375 127.230469 3.160156 130.933594 5.660156 C 138.367188 10.714844 143.875 18.058594 149.140625 25.339844 C 161.265625 42.011719 172.914062 59.042969 183.503906 76.738281 C 192.082031 91.121094 199.933594 105.957031 209.867188 119.40625 C 216.335938 128.222656 223.617188 136.378906 230.117188 145.136719 C 236.617188 153.921875 242.363281 163.433594 245.253906 173.964844 C 249.015625 187.65625 247.539062 202.734375 241.039062 215.339844 C 236.46875 224.21875 229.425781 231.832031 220.878906 236.976562 C 212.332031 242.125 203.335938 244.410156 193.34375 244.410156 C 177.484375 244.410156 161.988281 235.894531 147.242188 230.027344 C 117.210938 218.050781 84.589844 214.316406 53.625 204.988281 C 44.117188 202.128906 34.757812 198.730469 25.191406 196.113281 C 20.917969 194.9375 16.613281 193.914062 12.582031 192.078125 C 8.546875 190.273438 4.789062 187.535156 2.558594 183.746094 C 0.84375 180.796875 0.152344 177.335938 0.152344 173.933594 C 0.152344 170.503906 0.996094 167.132812 2.167969 163.945312 C 4.484375 157.535156 8.246094 151.726562 10.777344 145.375 C 14.898438 135.023438 15.652344 123.621094 15.078125 112.484375 C 14.535156 101.382812 12.730469 90.339844 11.980469 79.234375 C 11.617188 74.269531 11.496094 69.242188 12.460938 64.339844 C 13.394531 59.464844 15.5 54.679688 19.082031 51.25 C 22.390625 48.058594 26.753906 46.164062 31.269531 45.230469 C 35.753906 44.296875 40.386719 44.265625 44.960938 44.359375 C 49.535156 44.449219 54.136719 44.71875 58.710938 44.328125 C 63.285156 43.964844 67.890625 42.941406 71.863281 40.65625 C 75.652344 38.488281 78.753906 35.269531 81.3125 31.75 C 83.871094 28.226562 85.945312 24.375 88.082031 20.554688 C 90.1875 16.761719 92.386719 12.972656 95.183594 9.601562 C 97.953125 6.230469 101.382812 3.3125 105.414062 1.65625 Z M 105.414062 1.65625 " clip-rule="nonzero"/></clipPath></defs><g clip-path="url(#a247067806)"><g clip-path="url(#f81c665e52)"><path fill="#00bf63" d="M 0.152344 0 L 0.152344 244.410156 L 247.496094 244.410156 L 247.496094 0 Z M 0.152344 0 " fill-opacity="1" fill-rule="nonzero"/></g></g></svg>